<?xml version="1.0" encoding="utf-8"?>
<!-- Generator: Adobe Illustrator 25.0.0, SVG Export Plug-In . SVG Version: 6.00 Build 0)  -->
<svg version="1.2" baseProfile="tiny" xmlns="http://www.w3.org/2000/svg" xmlns:xlink="http://www.w3.org/1999/xlink" x="0px"
	 y="0px" viewBox="0 0 172.274 172.274" overflow="visible" xml:space="preserve">
<g id="Layer_1">
</g>
<g id="Logo">
	<circle fill="#D69E2E" cx="86.137" cy="86.137" r="86.137"/>
	<g>
		<g>
			<path fill="#1A202C" d="M133.202,41.548h-10.566c-1.872,0-3.379,1.508-3.379,3.379v44.784c0,3.041,0,9.344-0.611,11.891
				l-0.312,1.157c-0.806,2.924-4.744,3.405-6.212,0.754l-6.914-12.411c-3.509-6.264-7.447-10.436-15.205-10.436h-7.733
				c-7.772,0-11.696,4.185-15.205,10.462l-6.914,12.411c-1.481,2.638-5.406,2.17-6.212-0.754l-0.325-1.183
				c-0.611-2.547-0.611-8.85-0.611-11.891V44.927c0-1.871-1.507-3.379-3.379-3.379H39.072c-1.871,0-3.379,1.508-3.379,3.379v44.914
				c0,6.004,0.078,11.735,1.092,15.764l4.354,15.764c1.793,6.199,6.706,9.903,13.165,9.903h1.209c7.902,0,11.242-4.055,12.476-6.368
				l14.075-25.511l0.013-0.039c0.585-1.053,1.702-1.716,2.924-1.716h2.248c1.235,0,2.365,0.663,2.963,1.742l14.023,25.433
				c1.287,2.417,4.627,6.459,12.528,6.459h1.209c6.472,0,11.398-3.717,13.165-9.981l4.289-15.504l0.052-0.156
				c1.014-4.042,1.105-9.773,1.105-15.79V44.927C136.581,43.056,135.074,41.548,133.202,41.548z M85.908,49.037
				c2.219-0.034,3.99-1.861,3.956-4.08c-0.034-2.219-1.861-3.99-4.08-3.956c-2.219,0.034-3.99,1.861-3.956,4.08
				C81.863,47.3,83.689,49.072,85.908,49.037z M85.975,53.35c-2.219,0.034-3.99,1.861-3.956,4.08c0.034,2.219,1.861,3.99,4.08,3.956
				c2.219-0.034,3.99-1.861,3.956-4.08C90.02,55.087,88.194,53.316,85.975,53.35z M86.164,65.698
				c-2.219,0.034-3.99,1.861-3.956,4.08c0.034,2.219,1.861,3.99,4.08,3.956c2.219-0.034,3.99-1.861,3.956-4.08
				C90.21,67.435,88.383,65.664,86.164,65.698z"/>
		</g>
	</g>
</g>
</svg>
