<?xml version="1.0" encoding="utf-8"?>
<!-- Generator: Adobe Illustrator 25.0.0, SVG Export Plug-In . SVG Version: 6.00 Build 0)  -->
<svg version="1.2" baseProfile="tiny" xmlns="http://www.w3.org/2000/svg" xmlns:xlink="http://www.w3.org/1999/xlink" x="0px"
	 y="0px" viewBox="0 0 607.48 80.04" overflow="visible" xml:space="preserve">
<g id="Layer_1">
</g>
<g id="Logo_Light">
	<path fill="#D69E2E" d="M91.13,4H71.45C68.7,4,68.7,4.67,68.7,5.8v46.35l-11.39-19.8c-0.86-1.42-2-2.27-5.27-2.27H46.5
		c-3.27,0-4.41,0.85-5.28,2.3L29.84,52.15V5.8c0-1.05,0-1.8-2.75-1.8H6.76C4,4,4,4.75,4,5.8v40.77c0,4.5,0,7.48,2.2,12.26l6.6,14.58
		c0.52,1.23,1.6,2.63,3.99,2.63h17.43c2.97,0,3.5-1.41,3.67-1.87l6.2-17.19c0.99-2.58,2.86-3.12,4.26-3.12h1.18
		c1.4,0,3.27,0.54,4.25,3.08l6.09,17.27c0.57,1.59,2.87,1.83,4.19,1.83h17.56c1.07,0,2.44-0.29,3.45-2.6l6.61-14.4
		c2.2-4.78,2.2-7.75,2.2-12.26V5.8C93.88,4.75,93.88,4,91.13,4z"/>
	<path fill="#1A202C" d="M91.13,0H71.45c-4.48,0-6.75,1.95-6.75,5.8v31.38l-3.94-6.85c-2.25-3.76-5.84-4.25-8.72-4.25H46.5
		c-2.88,0-6.47,0.49-8.73,4.28l-3.93,6.82V5.8c0-2.65-1.17-5.8-6.75-5.8H6.76C1.17,0,0,3.15,0,5.8v40.77c0,4.67,0,8.36,2.56,13.92
		l6.57,14.52c1.32,3.15,4.18,5.03,7.66,5.03h17.43c3.7,0,6.34-1.58,7.43-4.49l6.19-17.17c0.14-0.39,0.26-0.49,0.26-0.49
		c0-0.01,0.07-0.03,0.25-0.03h1.18c0.17,0,0.24,0.02,0.24,0.02c0.01,0.01,0.13,0.12,0.26,0.44l6.07,17.23
		c1.02,2.85,3.92,4.49,7.96,4.49h17.56c2.25,0,5.3-0.86,7.1-4.97l6.6-14.36c2.56-5.57,2.56-9.26,2.56-13.93V5.8
		C97.88,3.15,96.71,0,91.13,0z M93.88,46.78c0,4.51,0,7.48-2.2,12.26l-6.61,14.4c-1.01,2.31-2.38,2.6-3.45,2.6H64.06
		c-1.32,0-3.62-0.24-4.19-1.83l-6.09-17.27c-0.98-2.54-2.85-3.08-4.25-3.08h-1.18c-1.4,0-3.27,0.54-4.26,3.12l-6.2,17.19
		c-0.17,0.46-0.7,1.87-3.67,1.87H16.79c-2.39,0-3.47-1.4-3.99-2.63L6.2,58.83C4,54.05,4,51.07,4,46.57V5.8C4,4.75,4,4,6.76,4h20.33
		c2.75,0,2.75,0.75,2.75,1.8v46.35l11.38-19.77c0.87-1.45,2.01-2.3,5.28-2.3h5.54c3.27,0,4.41,0.85,5.27,2.27l11.39,19.8V5.8
		c0-1.13,0-1.8,2.75-1.8h19.68c2.75,0,2.75,0.75,2.75,1.8V46.78z"/>
	<g>
		<path fill="#D69E2E" d="M179.5,30.33L168.01,6.34c-0.55-1.25-1.48-2.34-4.8-2.34h-35.52c-3.43,0-4.38,1.09-4.9,2.28l-11.51,24.04
			c-3.38,7.01-4.96,12.1-4.96,16.04v27.88c0,1.05,0,1.8,2.76,1.8h19.4c2.76,0,2.76-0.75,2.76-1.8V57.45h27.37v16.79
			c0,0.93,0,1.8,3.15,1.8h19.93c2.76,0,2.76-0.75,2.76-1.8V46.36C184.45,42.42,182.87,37.33,179.5,30.33z M131.64,42.23l7.35-18.98
			c0.99-1.9,2.43-2.87,4.28-2.87h3.3c1.85,0,3.29,0.97,4.29,2.87l0.09,0.2l7.25,18.78H131.64z"/>
		<path fill="#1A202C" d="M183.1,28.59L171.65,4.68C170.27,1.53,167.51,0,163.21,0h-35.52c-4.39,0-7.19,1.53-8.53,4.62l-11.49,23.97
			c-3.7,7.67-5.35,13.15-5.35,17.77v27.88c0,2.65,1.17,5.8,6.76,5.8h19.4c5.59,0,6.76-3.15,6.76-5.8V61.45h19.37v12.79
			c0,2.65,1.24,5.8,7.15,5.8h19.93c5.59,0,6.76-3.15,6.76-5.8V46.36C188.45,41.74,186.8,36.26,183.1,28.59z M184.45,74.24
			c0,1.05,0,1.8-2.76,1.8h-19.93c-3.15,0-3.15-0.87-3.15-1.8V57.45h-27.37v16.79c0,1.05,0,1.8-2.76,1.8h-19.4
			c-2.76,0-2.76-0.75-2.76-1.8V46.36c0-3.94,1.58-9.03,4.96-16.04l11.51-24.04c0.52-1.19,1.47-2.28,4.9-2.28h35.52
			c3.32,0,4.25,1.09,4.8,2.34l11.49,23.99c3.37,7,4.95,12.09,4.95,16.03V74.24z"/>
		<path fill="#1A202C" d="M150.95,23.45l-0.09-0.2c-1-1.9-2.44-2.87-4.29-2.87h-3.3c-1.85,0-3.29,0.97-4.28,2.87l-7.35,18.98h26.56
			L150.95,23.45z M142.59,25.01c0.34-0.63,0.53-0.63,0.68-0.63h3.3c0.16,0,0.35,0,0.69,0.63l5.11,13.22h-14.9L142.59,25.01z"/>
	</g>
	<g>
		<path fill="#D69E2E" d="M259.85,4h-69.71c-2.75,0-2.75,0.75-2.75,1.8v12.78c0,1.04,0,1.8,2.75,1.8h21.41v53.86
			c0,1.05,0,1.8,2.75,1.8h21.39c2.75,0,2.75-0.75,2.75-1.8V20.38h21.41c2.76,0,2.76-0.76,2.76-1.8V5.8
			C262.61,4.75,262.61,4,259.85,4z"/>
		<path fill="#1A202C" d="M259.85,0h-69.71c-5.58,0-6.75,3.15-6.75,5.8v12.78c0,2.64,1.17,5.8,6.75,5.8h17.41v49.86
			c0,2.65,1.17,5.8,6.75,5.8h21.39c5.58,0,6.75-3.15,6.75-5.8V24.38h17.41c5.59,0,6.76-3.16,6.76-5.8V5.8
			C266.61,3.15,265.44,0,259.85,0z M262.61,18.58c0,1.04,0,1.8-2.76,1.8h-21.41v53.86c0,1.05,0,1.8-2.75,1.8H214.3
			c-2.75,0-2.75-0.75-2.75-1.8V20.38h-21.41c-2.75,0-2.75-0.76-2.75-1.8V5.8c0-1.05,0-1.8,2.75-1.8h69.71c2.76,0,2.76,0.75,2.76,1.8
			V18.58z"/>
	</g>
	<g>
		<path fill="#D69E2E" d="M310.15,20.38h26.54c2.76,0,2.76-0.76,2.76-1.8V5.8c0-1.05,0-1.8-2.76-1.8h-32.21
			C277.46,4,274,14.5,274,23.65V56.5c0,9.1,3.46,19.54,30.48,19.54h32.21c2.76,0,2.76-0.75,2.76-1.8V61.67c0-1.05,0-1.8-2.76-1.8
			h-26.54c-6.67,0-10.05-2.38-10.05-7.07V27.66C300.1,22.83,303.48,20.38,310.15,20.38z"/>
		<path fill="#1A202C" d="M310.15,24.38h26.54c5.59,0,6.76-3.16,6.76-5.8V5.8c0-2.65-1.17-5.8-6.76-5.8h-32.21
			C281.28,0,270,7.73,270,23.65V56.5c0,15.84,11.28,23.54,34.48,23.54h32.21c5.59,0,6.76-3.15,6.76-5.8V61.67
			c0-2.65-1.17-5.8-6.76-5.8h-26.54c-6.05,0-6.05-1.92-6.05-3.07V27.66C304.1,26.43,304.1,24.38,310.15,24.38z M339.45,61.67v12.57
			c0,1.05,0,1.8-2.76,1.8h-32.21C277.46,76.04,274,65.6,274,56.5V23.65C274,14.5,277.46,4,304.48,4h32.21c2.76,0,2.76,0.75,2.76,1.8
			v12.78c0,1.04,0,1.8-2.76,1.8h-26.54c-6.67,0-10.05,2.45-10.05,7.28V52.8c0,4.69,3.38,7.07,10.05,7.07h26.54
			C339.45,59.87,339.45,60.62,339.45,61.67z"/>
	</g>
	<g>
		<path fill="#D69E2E" d="M428.3,4h-20.47c-2.75,0-2.75,0.75-2.75,1.8v24.92h-26.05V5.8c0-1.05,0-1.8-2.75-1.8h-20.47
			c-2.75,0-2.75,0.75-2.75,1.8v68.44c0,1.05,0,1.8,2.75,1.8h20.47c2.75,0,2.75-0.75,2.75-1.8V48.79h26.05v25.45
			c0,1.05,0,1.8,2.75,1.8h20.47c2.75,0,2.75-0.75,2.75-1.8V5.8C431.05,4.75,431.05,4,428.3,4z"/>
		<path fill="#1A202C" d="M428.3,0h-20.47c-5.58,0-6.75,3.15-6.75,5.8v20.92h-18.05V5.8c0-2.65-1.17-5.8-6.75-5.8h-20.47
			c-5.58,0-6.75,3.15-6.75,5.8v68.44c0,2.65,1.17,5.8,6.75,5.8h20.47c5.58,0,6.75-3.15,6.75-5.8V52.79h18.05v21.45
			c0,2.65,1.17,5.8,6.75,5.8h20.47c5.58,0,6.75-3.15,6.75-5.8V5.8C435.05,3.15,433.88,0,428.3,0z M431.05,74.24
			c0,1.05,0,1.8-2.75,1.8h-20.47c-2.75,0-2.75-0.75-2.75-1.8V48.79h-26.05v25.45c0,1.05,0,1.8-2.75,1.8h-20.47
			c-2.75,0-2.75-0.75-2.75-1.8V5.8c0-1.05,0-1.8,2.75-1.8h20.47c2.75,0,2.75,0.75,2.75,1.8v24.92h26.05V5.8c0-1.05,0-1.8,2.75-1.8
			h20.47c2.75,0,2.75,0.75,2.75,1.8V74.24z"/>
	</g>
	<g>
		<path fill="#D69E2E" d="M497.29,36.62l-9.23-0.85l8.77-3.03c4.51-1.56,6.44-4.4,6.44-9.52V17.1c0-10.83-10.69-13.1-19.65-13.1
			h-36.84c-2.76,0-2.76,0.75-2.76,1.8v12.57c0,1.04,0,1.8,2.76,1.8h24.56c5.8,0,7.01,2.81,7.01,5.17v1.58
			c0,2.36-1.21,5.17-7.01,5.17h-13.87c-2.75,0-2.75,0.76-2.75,1.8v11.3c0,1.05,0,1.81,2.75,1.81h22.45c4.65,0,7.02,1.7,7.02,5.06
			v2.85c0,2.36-1.22,5.17-7.02,5.17h-33.14c-2.76,0-2.76,0.76-2.76,1.8v12.36c0,1.05,0,1.8,2.76,1.8h41.72
			c8.82,0,23.62-2.02,23.62-15.53V49.95C512.12,42.38,509.69,37.77,497.29,36.62z"/>
		<path fill="#1A202C" d="M503.35,33.54c2.63-2.42,3.92-5.83,3.92-10.32V17.1c0-10.87-8.62-17.1-23.65-17.1h-36.84
			c-5.58,0-6.76,3.15-6.76,5.8v12.57c0,2.64,1.18,5.8,6.76,5.8h24.56c3.01,0,3.01,0.7,3.01,1.17v1.58c0,0.47,0,1.17-3.01,1.17
			h-13.87c-5.58,0-6.75,3.16-6.75,5.8v11.3c0,2.65,1.17,5.81,6.75,5.81h22.45c3.02,0,3.02,0.64,3.02,1.06v2.85
			c0,0.47,0,1.17-3.02,1.17h-33.14c-5.58,0-6.76,3.15-6.76,5.8v12.36c0,2.65,1.18,5.8,6.76,5.8h41.72
			c17.55,0,27.62-7.12,27.62-19.53V49.95C516.12,40.78,512.23,35.66,503.35,33.54z M512.12,60.51c0,13.51-14.8,15.53-23.62,15.53
			h-41.72c-2.76,0-2.76-0.75-2.76-1.8V61.88c0-1.04,0-1.8,2.76-1.8h33.14c5.8,0,7.02-2.81,7.02-5.17v-2.85
			c0-3.36-2.37-5.06-7.02-5.06h-22.45c-2.75,0-2.75-0.76-2.75-1.81v-11.3c0-1.04,0-1.8,2.75-1.8h13.87c5.8,0,7.01-2.81,7.01-5.17
			v-1.58c0-2.36-1.21-5.17-7.01-5.17h-24.56c-2.76,0-2.76-0.76-2.76-1.8V5.8c0-1.05,0-1.8,2.76-1.8h36.84
			c8.96,0,19.65,2.27,19.65,13.1v6.12c0,5.12-1.93,7.96-6.44,9.52l-8.77,3.03l9.23,0.85c12.4,1.15,14.83,5.76,14.83,13.33V60.51z"/>
	</g>
	<g>
		<path fill="#D69E2E" d="M589.33,38.53l-9.4-0.83l8.92-3.06c4.24-1.45,6.05-4.49,6.05-10.15v-4.86c0-7.28-2.73-15.63-24.02-15.63
			h-43.96c-2.76,0-2.76,0.75-2.76,1.8v68.44c0,1.05,0,1.8,2.76,1.8h20.33c2.75,0,2.75-0.75,2.75-1.8v-22.7h20.49
			c4.72,0,7.02,2.14,7.02,6.54v16.16c0,1.05,0,1.8,2.75,1.8h20.46c2.76,0,2.76-0.75,2.76-1.8V51.85
			C603.48,44.28,598.19,39.3,589.33,38.53z M569.72,29.56c0,3.18-1.36,6.97-7.81,6.97H550V19.01h11.91c6.45,0,7.81,3.78,7.81,6.96
			V29.56z"/>
		<path fill="#1A202C" d="M595.03,35.55c2.6-2.49,3.87-6.15,3.87-11.06v-4.86C598.9,6.42,589.73,0,570.88,0h-43.96
			c-5.58,0-6.76,3.15-6.76,5.8v68.44c0,2.65,1.18,5.8,6.76,5.8h20.33c5.58,0,6.75-3.15,6.75-5.8v-18.7h16.49
			c2.77,0,3.02,0.66,3.02,2.54v16.16c0,2.65,1.17,5.8,6.75,5.8h20.46c5.59,0,6.76-3.15,6.76-5.8V51.85
			C607.48,43.83,602.83,37.91,595.03,35.55z M603.48,74.24c0,1.05,0,1.8-2.76,1.8h-20.46c-2.75,0-2.75-0.75-2.75-1.8V58.08
			c0-4.4-2.3-6.54-7.02-6.54H550v22.7c0,1.05,0,1.8-2.75,1.8h-20.33c-2.76,0-2.76-0.75-2.76-1.8V5.8c0-1.05,0-1.8,2.76-1.8h43.96
			c21.29,0,24.02,8.35,24.02,15.63v4.86c0,5.66-1.81,8.7-6.05,10.15l-8.92,3.06l9.4,0.83c8.86,0.77,14.15,5.75,14.15,13.32V74.24z"
			/>
		<path fill="#1A202C" d="M561.91,19.01H550v17.52h11.91c6.45,0,7.81-3.79,7.81-6.97v-3.59C569.72,22.79,568.36,19.01,561.91,19.01z
			 M565.72,29.56c0,1.74-0.28,2.97-3.81,2.97H554v-9.52h7.91c3.53,0,3.81,1.23,3.81,2.96V29.56z"/>
	</g>
	<g>
		<g>
			<circle fill="#1A202C" cx="23.545" cy="10.509" r="2.155"/>
		</g>
		<g>
			<circle fill="#1A202C" cx="16.922" cy="10.611" r="2.155"/>
		</g>
		<g>
			<circle fill="#1A202C" cx="10.299" cy="10.712" r="2.155"/>
		</g>
	</g>
	<g>
		<g>
			<circle fill="#1A202C" cx="87.582" cy="10.509" r="2.155"/>
		</g>
		<g>
			<circle fill="#1A202C" cx="80.959" cy="10.611" r="2.155"/>
		</g>
		<g>
			<circle fill="#1A202C" cx="74.336" cy="10.712" r="2.155"/>
		</g>
	</g>
	<g>
		<g>
			<circle fill="#1A202C" cx="499.129" cy="46.95" r="2.155"/>
		</g>
		<g>
			<circle fill="#1A202C" cx="499.231" cy="53.573" r="2.155"/>
		</g>
		<g>
			<circle fill="#1A202C" cx="499.332" cy="60.196" r="2.155"/>
		</g>
	</g>
</g>
</svg>
