<?xml version="1.0" encoding="utf-8"?>
<!-- Generator: Adobe Illustrator 25.0.0, SVG Export Plug-In . SVG Version: 6.00 Build 0)  -->
<svg version="1.2" baseProfile="tiny" xmlns="http://www.w3.org/2000/svg" xmlns:xlink="http://www.w3.org/1999/xlink" x="0px"
	 y="0px" viewBox="0 0 172.64 172.64" overflow="visible" xml:space="preserve">
<g id="Layer_1">
</g>
<g id="Logo_Light">
</g>
<g id="Logo_Dark">
	<g>
		
			<ellipse transform="matrix(0.7071 -0.7071 0.7071 0.7071 -35.7549 86.3199)" fill="#1A202C" cx="86.32" cy="86.32" rx="86.32" ry="86.32"/>
		<path fill="#808080" d="M126.505,48.295h-19.671c-4.485,0-6.76,1.951-6.76,5.8v31.377l-3.936-6.847
			c-2.258-3.758-5.843-4.24-8.714-4.24h-5.551c-2.875,0-6.462,0.482-8.723,4.272l-3.927,6.823V54.095c0-2.646-1.173-5.8-6.76-5.8
			h-20.33c-5.579,0-6.75,3.154-6.75,5.8v40.771c0,4.668,0,8.355,2.549,13.926l6.583,14.51c1.309,3.158,4.172,5.044,7.658,5.044
			h17.42c3.708,0,6.344-1.587,7.432-4.491l6.198-17.189c0.146-0.384,0.262-0.483,0.26-0.483c0.004-0.001,0.065-0.025,0.24-0.025
			h1.189c0.17,0,0.235,0.022,0.238,0.022c0.009,0.007,0.126,0.11,0.255,0.442l6.072,17.225c1.018,2.86,3.917,4.5,7.955,4.5h17.56
			c2.247,0,5.308-0.868,7.107-4.975l6.602-14.363c2.552-5.576,2.552-9.264,2.552-13.932v-40.98
			C133.255,51.45,132.084,48.295,126.505,48.295z"/>
		<path fill="#D69E2E" d="M130.505,44.295h-19.671c-4.485,0-6.76,1.951-6.76,5.8v31.377l-3.936-6.847
			c-2.258-3.758-5.843-4.24-8.714-4.24h-5.551c-2.875,0-6.462,0.482-8.723,4.272l-3.927,6.823V50.095c0-2.646-1.173-5.8-6.76-5.8
			h-20.33c-5.579,0-6.75,3.154-6.75,5.8v40.771c0,4.668,0,8.355,2.549,13.926l6.583,14.51c1.309,3.158,4.172,5.044,7.658,5.044
			h17.42c3.708,0,6.344-1.587,7.432-4.491l6.198-17.189c0.146-0.384,0.262-0.483,0.26-0.483c0.004-0.001,0.065-0.025,0.24-0.025
			h1.189c0.17,0,0.235,0.022,0.238,0.022c0.009,0.007,0.126,0.11,0.255,0.442l6.072,17.225c1.018,2.86,3.917,4.5,7.955,4.5h17.56
			c2.247,0,5.308-0.868,7.107-4.975l6.602-14.363c2.552-5.576,2.552-9.264,2.552-13.932v-40.98
			C137.255,47.449,136.084,44.295,130.505,44.295z"/>
		<path fill="#1A202C" d="M107.526,55.184c-1.19,0-2.155,0.965-2.155,2.155s0.965,2.155,2.155,2.155c1.19,0,2.155-0.965,2.155-2.155
			S108.716,55.184,107.526,55.184z M114.15,55.184c-1.19,0-2.155,0.965-2.155,2.155s0.965,2.155,2.155,2.155
			c1.19,0,2.155-0.965,2.155-2.155S115.34,55.184,114.15,55.184z M134.023,55.184c-1.19,0-2.155,0.965-2.155,2.155
			s0.965,2.155,2.155,2.155s2.155-0.965,2.155-2.155S135.213,55.184,134.023,55.184z M127.398,55.184
			c-1.19,0-2.155,0.965-2.155,2.155s0.965,2.155,2.155,2.155c1.19,0,2.156-0.965,2.156-2.155S128.589,55.184,127.398,55.184z
			 M120.774,55.184c-1.19,0-2.155,0.965-2.155,2.155s0.965,2.155,2.155,2.155c1.19,0,2.155-0.965,2.155-2.155
			S121.965,55.184,120.774,55.184z M56.23,55.184c-1.19,0-2.155,0.965-2.155,2.155s0.965,2.155,2.155,2.155
			c1.19,0,2.155-0.965,2.155-2.155S57.42,55.184,56.23,55.184z M42.982,55.184c-1.19,0-2.155,0.965-2.155,2.155
			s0.965,2.155,2.155,2.155c1.19,0,2.155-0.965,2.155-2.155S44.172,55.184,42.982,55.184z M49.606,55.184
			c-1.19,0-2.155,0.965-2.155,2.155s0.965,2.155,2.155,2.155c1.19,0,2.155-0.965,2.155-2.155S50.796,55.184,49.606,55.184z
			 M62.854,55.184c-1.19,0-2.155,0.965-2.155,2.155s0.965,2.155,2.155,2.155c1.19,0,2.155-0.965,2.155-2.155
			S64.044,55.184,62.854,55.184z M69.478,55.184c-1.19,0-2.155,0.965-2.155,2.155s0.965,2.155,2.155,2.155
			c1.19,0,2.156-0.965,2.156-2.155S70.669,55.184,69.478,55.184z"/>
	</g>
</g>
</svg>
