<svg version="1.2" baseProfile="tiny" xmlns="http://www.w3.org/2000/svg" viewBox="0 0 607.48 80.04" overflow="visible"><path fill="#D69E2E" d="M91.13 4H71.45c-2.75 0-2.75.67-2.75 1.8v46.35l-11.39-19.8c-.86-1.42-2-2.27-5.27-2.27H46.5c-3.27 0-4.41.85-5.28 2.3L29.84 52.15V5.8c0-1.05 0-1.8-2.75-1.8H6.76C4 4 4 4.75 4 5.8v40.77c0 4.5 0 7.48 2.2 12.26l6.6 14.58c.52 1.23 1.6 2.63 3.99 2.63h17.43c2.97 0 3.5-1.41 3.67-1.87l6.2-17.19c.99-2.58 2.86-3.12 4.26-3.12h1.18c1.4 0 3.27.54 4.25 3.08l6.09 17.27c.57 1.59 2.87 1.83 4.19 1.83h17.56c1.07 0 2.44-.29 3.45-2.6l6.61-14.4c2.2-4.78 2.2-7.75 2.2-12.26V5.8c0-1.05 0-1.8-2.75-1.8z"/><path fill="#1A202C" d="M91.13 0H71.45c-4.48 0-6.75 1.95-6.75 5.8v31.38l-3.94-6.85c-2.25-3.76-5.84-4.25-8.72-4.25H46.5c-2.88 0-6.47.49-8.73 4.28l-3.93 6.82V5.8c0-2.65-1.17-5.8-6.75-5.8H6.76C1.17 0 0 3.15 0 5.8v40.77c0 4.67 0 8.36 2.56 13.92l6.57 14.52c1.32 3.15 4.18 5.03 7.66 5.03h17.43c3.7 0 6.34-1.58 7.43-4.49l6.19-17.17c.14-.39.26-.49.26-.49 0-.01.07-.03.25-.03h1.18c.17 0 .24.02.24.02.01.01.13.12.26.44l6.07 17.23c1.02 2.85 3.92 4.49 7.96 4.49h17.56c2.25 0 5.3-.86 7.1-4.97l6.6-14.36c2.56-5.57 2.56-9.26 2.56-13.93V5.8c0-2.65-1.17-5.8-6.75-5.8zm2.75 46.78c0 4.51 0 7.48-2.2 12.26l-6.61 14.4c-1.01 2.31-2.38 2.6-3.45 2.6H64.06c-1.32 0-3.62-.24-4.19-1.83l-6.09-17.27c-.98-2.54-2.85-3.08-4.25-3.08h-1.18c-1.4 0-3.27.54-4.26 3.12l-6.2 17.19c-.17.46-.7 1.87-3.67 1.87H16.79c-2.39 0-3.47-1.4-3.99-2.63L6.2 58.83C4 54.05 4 51.07 4 46.57V5.8C4 4.75 4 4 6.76 4h20.33c2.75 0 2.75.75 2.75 1.8v46.35l11.38-19.77c.87-1.45 2.01-2.3 5.28-2.3h5.54c3.27 0 4.41.85 5.27 2.27l11.39 19.8V5.8c0-1.13 0-1.8 2.75-1.8h19.68c2.75 0 2.75.75 2.75 1.8v40.98z"/><path fill="#D69E2E" d="M179.5 30.33L168.01 6.34c-.55-1.25-1.48-2.34-4.8-2.34h-35.52c-3.43 0-4.38 1.09-4.9 2.28l-11.51 24.04c-3.38 7.01-4.96 12.1-4.96 16.04v27.88c0 1.05 0 1.8 2.76 1.8h19.4c2.76 0 2.76-.75 2.76-1.8V57.45h27.37v16.79c0 .93 0 1.8 3.15 1.8h19.93c2.76 0 2.76-.75 2.76-1.8V46.36c0-3.94-1.58-9.03-4.95-16.03zm-47.86 11.9l7.35-18.98c.99-1.9 2.43-2.87 4.28-2.87h3.3c1.85 0 3.29.97 4.29 2.87l.09.2 7.25 18.78h-26.56z"/><path fill="#1A202C" d="M183.1 28.59L171.65 4.68C170.27 1.53 167.51 0 163.21 0h-35.52c-4.39 0-7.19 1.53-8.53 4.62l-11.49 23.97c-3.7 7.67-5.35 13.15-5.35 17.77v27.88c0 2.65 1.17 5.8 6.76 5.8h19.4c5.59 0 6.76-3.15 6.76-5.8V61.45h19.37v12.79c0 2.65 1.24 5.8 7.15 5.8h19.93c5.59 0 6.76-3.15 6.76-5.8V46.36c0-4.62-1.65-10.1-5.35-17.77zm1.35 45.65c0 1.05 0 1.8-2.76 1.8h-19.93c-3.15 0-3.15-.87-3.15-1.8V57.45h-27.37v16.79c0 1.05 0 1.8-2.76 1.8h-19.4c-2.76 0-2.76-.75-2.76-1.8V46.36c0-3.94 1.58-9.03 4.96-16.04l11.51-24.04c.52-1.19 1.47-2.28 4.9-2.28h35.52c3.32 0 4.25 1.09 4.8 2.34l11.49 23.99c3.37 7 4.95 12.09 4.95 16.03v27.88z"/><path fill="#1A202C" d="M150.95 23.45l-.09-.2c-1-1.9-2.44-2.87-4.29-2.87h-3.3c-1.85 0-3.29.97-4.28 2.87l-7.35 18.98h26.56l-7.25-18.78zm-8.36 1.56c.34-.63.53-.63.68-.63h3.3c.16 0 .35 0 .69.63l5.11 13.22h-14.9l5.12-13.22z"/><path fill="#D69E2E" d="M259.85 4h-69.71c-2.75 0-2.75.75-2.75 1.8v12.78c0 1.04 0 1.8 2.75 1.8h21.41v53.86c0 1.05 0 1.8 2.75 1.8h21.39c2.75 0 2.75-.75 2.75-1.8V20.38h21.41c2.76 0 2.76-.76 2.76-1.8V5.8c0-1.05 0-1.8-2.76-1.8z"/><path fill="#1A202C" d="M259.85 0h-69.71c-5.58 0-6.75 3.15-6.75 5.8v12.78c0 2.64 1.17 5.8 6.75 5.8h17.41v49.86c0 2.65 1.17 5.8 6.75 5.8h21.39c5.58 0 6.75-3.15 6.75-5.8V24.38h17.41c5.59 0 6.76-3.16 6.76-5.8V5.8c0-2.65-1.17-5.8-6.76-5.8zm2.76 18.58c0 1.04 0 1.8-2.76 1.8h-21.41v53.86c0 1.05 0 1.8-2.75 1.8H214.3c-2.75 0-2.75-.75-2.75-1.8V20.38h-21.41c-2.75 0-2.75-.76-2.75-1.8V5.8c0-1.05 0-1.8 2.75-1.8h69.71c2.76 0 2.76.75 2.76 1.8v12.78z"/><path fill="#D69E2E" d="M310.15 20.38h26.54c2.76 0 2.76-.76 2.76-1.8V5.8c0-1.05 0-1.8-2.76-1.8h-32.21C277.46 4 274 14.5 274 23.65V56.5c0 9.1 3.46 19.54 30.48 19.54h32.21c2.76 0 2.76-.75 2.76-1.8V61.67c0-1.05 0-1.8-2.76-1.8h-26.54c-6.67 0-10.05-2.38-10.05-7.07V27.66c0-4.83 3.38-7.28 10.05-7.28z"/><path fill="#1A202C" d="M310.15 24.38h26.54c5.59 0 6.76-3.16 6.76-5.8V5.8c0-2.65-1.17-5.8-6.76-5.8h-32.21C281.28 0 270 7.73 270 23.65V56.5c0 15.84 11.28 23.54 34.48 23.54h32.21c5.59 0 6.76-3.15 6.76-5.8V61.67c0-2.65-1.17-5.8-6.76-5.8h-26.54c-6.05 0-6.05-1.92-6.05-3.07V27.66c0-1.23 0-3.28 6.05-3.28zm29.3 37.29v12.57c0 1.05 0 1.8-2.76 1.8h-32.21C277.46 76.04 274 65.6 274 56.5V23.65C274 14.5 277.46 4 304.48 4h32.21c2.76 0 2.76.75 2.76 1.8v12.78c0 1.04 0 1.8-2.76 1.8h-26.54c-6.67 0-10.05 2.45-10.05 7.28V52.8c0 4.69 3.38 7.07 10.05 7.07h26.54c2.76 0 2.76.75 2.76 1.8z"/><path fill="#D69E2E" d="M428.3 4h-20.47c-2.75 0-2.75.75-2.75 1.8v24.92h-26.05V5.8c0-1.05 0-1.8-2.75-1.8h-20.47c-2.75 0-2.75.75-2.75 1.8v68.44c0 1.05 0 1.8 2.75 1.8h20.47c2.75 0 2.75-.75 2.75-1.8V48.79h26.05v25.45c0 1.05 0 1.8 2.75 1.8h20.47c2.75 0 2.75-.75 2.75-1.8V5.8c0-1.05 0-1.8-2.75-1.8z"/><path fill="#1A202C" d="M428.3 0h-20.47c-5.58 0-6.75 3.15-6.75 5.8v20.92h-18.05V5.8c0-2.65-1.17-5.8-6.75-5.8h-20.47c-5.58 0-6.75 3.15-6.75 5.8v68.44c0 2.65 1.17 5.8 6.75 5.8h20.47c5.58 0 6.75-3.15 6.75-5.8V52.79h18.05v21.45c0 2.65 1.17 5.8 6.75 5.8h20.47c5.58 0 6.75-3.15 6.75-5.8V5.8c0-2.65-1.17-5.8-6.75-5.8zm2.75 74.24c0 1.05 0 1.8-2.75 1.8h-20.47c-2.75 0-2.75-.75-2.75-1.8V48.79h-26.05v25.45c0 1.05 0 1.8-2.75 1.8h-20.47c-2.75 0-2.75-.75-2.75-1.8V5.8c0-1.05 0-1.8 2.75-1.8h20.47c2.75 0 2.75.75 2.75 1.8v24.92h26.05V5.8c0-1.05 0-1.8 2.75-1.8h20.47c2.75 0 2.75.75 2.75 1.8v68.44z"/><g><path fill="#D69E2E" d="M497.29 36.62l-9.23-.85 8.77-3.03c4.51-1.56 6.44-4.4 6.44-9.52V17.1c0-10.83-10.69-13.1-19.65-13.1h-36.84c-2.76 0-2.76.75-2.76 1.8v12.57c0 1.04 0 1.8 2.76 1.8h24.56c5.8 0 7.01 2.81 7.01 5.17v1.58c0 2.36-1.21 5.17-7.01 5.17h-13.87c-2.75 0-2.75.76-2.75 1.8v11.3c0 1.05 0 1.81 2.75 1.81h22.45c4.65 0 7.02 1.7 7.02 5.06v2.85c0 2.36-1.22 5.17-7.02 5.17h-33.14c-2.76 0-2.76.76-2.76 1.8v12.36c0 1.05 0 1.8 2.76 1.8h41.72c8.82 0 23.62-2.02 23.62-15.53V49.95c0-7.57-2.43-12.18-14.83-13.33z"/><path fill="#1A202C" d="M503.35 33.54c2.63-2.42 3.92-5.83 3.92-10.32V17.1c0-10.87-8.62-17.1-23.65-17.1h-36.84c-5.58 0-6.76 3.15-6.76 5.8v12.57c0 2.64 1.18 5.8 6.76 5.8h24.56c3.01 0 3.01.7 3.01 1.17v1.58c0 .47 0 1.17-3.01 1.17h-13.87c-5.58 0-6.75 3.16-6.75 5.8v11.3c0 2.65 1.17 5.81 6.75 5.81h22.45c3.02 0 3.02.64 3.02 1.06v2.85c0 .47 0 1.17-3.02 1.17h-33.14c-5.58 0-6.76 3.15-6.76 5.8v12.36c0 2.65 1.18 5.8 6.76 5.8h41.72c17.55 0 27.62-7.12 27.62-19.53V49.95c0-9.17-3.89-14.29-12.77-16.41zm8.77 26.97c0 13.51-14.8 15.53-23.62 15.53h-41.72c-2.76 0-2.76-.75-2.76-1.8V61.88c0-1.04 0-1.8 2.76-1.8h33.14c5.8 0 7.02-2.81 7.02-5.17v-2.85c0-3.36-2.37-5.06-7.02-5.06h-22.45c-2.75 0-2.75-.76-2.75-1.81v-11.3c0-1.04 0-1.8 2.75-1.8h13.87c5.8 0 7.01-2.81 7.01-5.17v-1.58c0-2.36-1.21-5.17-7.01-5.17h-24.56c-2.76 0-2.76-.76-2.76-1.8V5.8c0-1.05 0-1.8 2.76-1.8h36.84c8.96 0 19.65 2.27 19.65 13.1v6.12c0 5.12-1.93 7.96-6.44 9.52l-8.77 3.03 9.23.85c12.4 1.15 14.83 5.76 14.83 13.33v10.56z"/></g><g><path fill="#D69E2E" d="M589.33 38.53l-9.4-.83 8.92-3.06c4.24-1.45 6.05-4.49 6.05-10.15v-4.86c0-7.28-2.73-15.63-24.02-15.63h-43.96c-2.76 0-2.76.75-2.76 1.8v68.44c0 1.05 0 1.8 2.76 1.8h20.33c2.75 0 2.75-.75 2.75-1.8v-22.7h20.49c4.72 0 7.02 2.14 7.02 6.54v16.16c0 1.05 0 1.8 2.75 1.8h20.46c2.76 0 2.76-.75 2.76-1.8V51.85c0-7.57-5.29-12.55-14.15-13.32zm-19.61-8.97c0 3.18-1.36 6.97-7.81 6.97H550V19.01h11.91c6.45 0 7.81 3.78 7.81 6.96v3.59z"/><path fill="#1A202C" d="M595.03 35.55c2.6-2.49 3.87-6.15 3.87-11.06v-4.86C598.9 6.42 589.73 0 570.88 0h-43.96c-5.58 0-6.76 3.15-6.76 5.8v68.44c0 2.65 1.18 5.8 6.76 5.8h20.33c5.58 0 6.75-3.15 6.75-5.8v-18.7h16.49c2.77 0 3.02.66 3.02 2.54v16.16c0 2.65 1.17 5.8 6.75 5.8h20.46c5.59 0 6.76-3.15 6.76-5.8V51.85c0-8.02-4.65-13.94-12.45-16.3zm8.45 38.69c0 1.05 0 1.8-2.76 1.8h-20.46c-2.75 0-2.75-.75-2.75-1.8V58.08c0-4.4-2.3-6.54-7.02-6.54H550v22.7c0 1.05 0 1.8-2.75 1.8h-20.33c-2.76 0-2.76-.75-2.76-1.8V5.8c0-1.05 0-1.8 2.76-1.8h43.96c21.29 0 24.02 8.35 24.02 15.63v4.86c0 5.66-1.81 8.7-6.05 10.15l-8.92 3.06 9.4.83c8.86.77 14.15 5.75 14.15 13.32v22.39z"/><path fill="#1A202C" d="M561.91 19.01H550v17.52h11.91c6.45 0 7.81-3.79 7.81-6.97v-3.59c0-3.18-1.36-6.96-7.81-6.96zm3.81 10.55c0 1.74-.28 2.97-3.81 2.97H554v-9.52h7.91c3.53 0 3.81 1.23 3.81 2.96v3.59z"/></g><g><circle fill="#1A202C" cx="23.545" cy="10.509" r="2.155"/><circle fill="#1A202C" cx="16.922" cy="10.611" r="2.155"/><circle fill="#1A202C" cx="10.299" cy="10.712" r="2.155"/></g><g><circle fill="#1A202C" cx="87.582" cy="10.509" r="2.155"/><circle fill="#1A202C" cx="80.959" cy="10.611" r="2.155"/><circle fill="#1A202C" cx="74.336" cy="10.712" r="2.155"/></g><g><circle fill="#1A202C" cx="499.129" cy="46.95" r="2.155"/><circle fill="#1A202C" cx="499.231" cy="53.573" r="2.155"/><circle fill="#1A202C" cx="499.332" cy="60.196" r="2.155"/></g></svg>