<?xml version="1.0" standalone="no"?>
<!DOCTYPE svg PUBLIC "-//W3C//DTD SVG 20010904//EN"
 "http://www.w3.org/TR/2001/REC-SVG-20010904/DTD/svg10.dtd">
<svg version="1.0" xmlns="http://www.w3.org/2000/svg"
 width="512.000000pt" height="512.000000pt" viewBox="0 0 512.000000 512.000000"
 preserveAspectRatio="xMidYMid meet">
<metadata>
Created by potrace 1.11, written by Peter Selinger 2001-2013
</metadata>
<g transform="translate(0.000000,512.000000) scale(0.100000,-0.100000)"
fill="#000000" stroke="none">
<path d="M1277 3796 c-47 -17 -74 -41 -96 -84 -9 -17 -32 -40 -51 -50 -22 -12
-44 -35 -58 -63 l-23 -44 4 -730 c3 -718 3 -731 25 -801 25 -83 238 -557 275
-612 14 -21 47 -50 78 -67 l54 -30 325 0 c324 0 325 0 374 24 34 17 57 38 75
67 14 24 32 44 38 44 7 0 32 19 56 43 39 38 50 59 102 207 32 91 65 181 73
200 l14 35 89 -254 c49 -139 99 -267 111 -284 12 -16 46 -41 77 -56 l56 -26
325 0 c317 0 326 1 367 22 23 13 58 43 79 68 21 26 50 53 65 61 16 8 41 33 57
57 35 52 233 481 270 585 l27 77 3 755 3 756 -23 34 c-13 19 -39 43 -58 54
-34 20 -50 21 -410 21 -360 0 -377 -1 -415 -21 -25 -13 -47 -36 -62 -63 -13
-25 -36 -50 -55 -60 -17 -9 -41 -29 -52 -44 -20 -27 -21 -45 -26 -365 -5 -324
-6 -335 -22 -310 -48 72 -169 104 -370 96 -113 -5 -135 -9 -183 -33 -31 -15
-68 -43 -83 -63 -15 -20 -49 -57 -77 -83 l-50 -48 -5 437 c-5 469 -5 467 -58
515 -47 43 -80 46 -452 46 -274 0 -364 -3 -393 -13z m35 -333 c22 -20 24 -66
2 -87 -45 -45 -122 11 -93 67 22 41 59 49 91 20z m200 0 c39 -35 11 -103 -43
-103 -30 0 -59 31 -59 62 0 25 35 58 62 58 12 0 30 -7 40 -17z m198 -3 c11
-11 20 -29 20 -40 0 -26 -34 -60 -62 -60 -50 0 -76 63 -41 102 21 24 58 23 83
-2z m192 3 c37 -34 13 -103 -36 -103 -36 0 -59 24 -59 60 0 54 55 79 95 43z
m196 1 c44 -31 17 -104 -39 -104 -30 0 -59 31 -59 62 0 23 35 58 58 58 10 0
28 -7 40 -16z m1132 -4 c24 -24 25 -48 4 -78 -30 -43 -104 -17 -104 36 0 56
61 81 100 42z m186 12 c23 -15 34 -50 25 -75 -23 -60 -111 -44 -111 20 0 47
50 79 86 55z m206 -9 c37 -33 11 -103 -39 -103 -28 0 -63 33 -63 60 0 26 34
60 62 60 12 0 30 -7 40 -17z m198 -3 c11 -11 20 -29 20 -40 0 -26 -34 -60 -62
-60 -50 0 -76 63 -41 102 21 24 58 23 83 -2z m192 3 c22 -20 24 -66 2 -87 -45
-45 -122 11 -93 67 22 41 59 49 91 20z"/>
</g>
</svg>
